<svg width="680" height="385" viewBox="0 0 680 385" xmlns="http://www.w3.org/2000/svg">
<title>The Bay Club — Modern Logo</title>
<defs>
  <clipPath id="oval">
    <ellipse cx="340" cy="195" rx="303" ry="163"/>
  </clipPath>
  <path id="topArc" d="M93,157 Q340,28 587,157" fill="none"/>
  <path id="botArc" d="M118,280 Q340,374 562,280" fill="none"/>
</defs>

<ellipse cx="340" cy="195" rx="308" ry="169" fill="#FFFFFF"/>
<ellipse cx="340" cy="195" rx="308" ry="169" fill="none" stroke="#0D2340" stroke-width="2.5"/>
<ellipse cx="340" cy="195" rx="295" ry="156" fill="none" stroke="#B8965A" stroke-width="1"/>

<g clip-path="url(#oval)">
  <line x1="10" y1="114" x2="670" y2="114" stroke="#B8965A" stroke-width="1"/>

  <rect x="68"  y="234" width="28" height="14" fill="#0D2340"/>
  <rect x="96"  y="228" width="21" height="20" fill="#0D2340"/>
  <rect x="117" y="220" width="20" height="28" fill="#0D2340"/>
  <rect x="137" y="212" width="19" height="36" fill="#0D2340"/>
  <rect x="156" y="202" width="19" height="46" fill="#0D2340"/>
  <rect x="175" y="190" width="21" height="58" fill="#0D2340"/>

  <rect x="196" y="145" width="56" height="103" fill="#0D2340"/>
  <rect x="200" y="133" width="10" height="16" fill="#0D2340"/>
  <rect x="242" y="133" width="10" height="16" fill="#0D2340"/>

  <rect x="255" y="215" width="21" height="33" fill="#0D2340"/>

  <rect x="276" y="149" width="56" height="99" fill="#0D2340"/>
  <rect x="280" y="137" width="10" height="16" fill="#0D2340"/>
  <rect x="322" y="137" width="10" height="16" fill="#0D2340"/>

  <circle cx="267" cy="166" r="9" fill="none" stroke="#B8965A" stroke-width="2"/>
  <circle cx="267" cy="166" r="3.5" fill="#B8965A"/>

  <rect x="332" y="213" width="20" height="35" fill="#0D2340"/>
  <rect x="352" y="205" width="18" height="43" fill="#0D2340"/>
  <rect x="370" y="215" width="18" height="33" fill="#0D2340"/>
  <rect x="388" y="223" width="14" height="25" fill="#0D2340"/>

  <rect x="402" y="200" width="12" height="48" fill="#0D2340"/>
  <rect x="504" y="200" width="12" height="48" fill="#0D2340"/>
  <path d="M408,200 Q457,162 510,200" stroke="#0D2340" stroke-width="3" fill="none"/>
  <rect x="402" y="226" width="114" height="6" fill="#0D2340"/>

  <rect x="516" y="222" width="20" height="26" fill="#0D2340"/>
  <rect x="536" y="216" width="18" height="32" fill="#0D2340"/>
  <rect x="554" y="222" width="18" height="26" fill="#0D2340"/>
  <rect x="572" y="229" width="18" height="19" fill="#0D2340"/>

  <line x1="10" y1="248" x2="670" y2="248" stroke="#B8965A" stroke-width="1.5"/>
  <line x1="10" y1="256" x2="670" y2="256" stroke="#B8965A" stroke-width="1.25"/>
  <line x1="10" y1="263" x2="670" y2="263" stroke="#B8965A" stroke-width="0.75"/>
  <line x1="10" y1="269" x2="670" y2="269" stroke="#B8965A" stroke-width="0.5"/>
  <line x1="10" y1="276" x2="670" y2="276" stroke="#B8965A" stroke-width="0.75"/>
</g>

<text font-family="Georgia,'Times New Roman',serif" font-size="26" letter-spacing="7" fill="#0D2340" text-anchor="middle">
  <textPath href="#topArc" startOffset="50%">THE BAY CLUB</textPath>
</text>

<text font-family="'Helvetica Neue',Helvetica,Arial,sans-serif" font-size="11" letter-spacing="2" fill="#0D2340" text-anchor="middle">
  <textPath href="#botArc" startOffset="50%">A CONDOMINIUM RESIDENCE FOR NEW YORKERS</textPath>
</text>
</svg>
